<svg width="18" height="48" viewBox="0 0 18 48" fill="none" xmlns="http://www.w3.org/2000/svg">
<path fill-rule="evenodd" clip-rule="evenodd" d="M13.75 4H4.25L3.25 3L4.25 2H13.75L14.75 3L13.75 4ZM13.75 24H4.25L3.25 23L4.25 22H13.75L14.75 23L13.75 24ZM4.25 14H13.75L14.75 13L13.75 12H4.25L3.25 13L4.25 14ZM2 11.75V4.25L3 3.25L4 4.25L4 11.75L3 12.75L2 11.75ZM14 4.25V11.75L15 12.75L16 11.75V4.25L15 3.25L14 4.25ZM2 21.75V14.25L3 13.25L4 14.25L4 21.75L3 22.75L2 21.75ZM14 14.25V21.75L15 22.75L16 21.75V14.25L15 13.25L14 14.25Z" fill="#FF0909"/>
</svg>
